<?xml version="1.0" encoding="UTF-8"?><svg id="Layer_2" xmlns="http://www.w3.org/2000/svg" viewBox="0 0 267 267"><defs><style>.cls-1{stroke-width:3px;}.cls-1,.cls-2{stroke:#fff;}.cls-1,.cls-2,.cls-3,.cls-4,.cls-5{stroke-miterlimit:10;}.cls-1,.cls-4,.cls-5{fill:none;}.cls-3{fill:#fff;}.cls-3,.cls-4{stroke-width:4px;}.cls-3,.cls-4,.cls-5{stroke:#000;}.cls-5{stroke-width:11px;}</style></defs><g id="Layer_1-2"><g><circle class="cls-3" cx="133.5" cy="133.5" r="131.5"/><circle class="cls-3" cx="133.25" cy="133.25" r="120.14"/><circle class="cls-5" cx="133.25" cy="131.74" r="88.99"/><g><path d="M133.29,37.2c52.25,0,94.61,42.36,94.61,94.61s-42.36,94.63-94.61,94.63-94.63-42.36-94.63-94.63S81.02,37.2,133.29,37.2Zm30.24,94.63c0-16.68-13.58-30.26-30.26-30.26s-30.24,13.58-30.24,30.26,13.56,30.24,30.24,30.24,30.26-13.56,30.26-30.24Z"/><path d="M133.27,101.57c16.68,0,30.26,13.58,30.26,30.26s-13.58,30.24-30.26,30.24-30.24-13.56-30.24-30.24,13.56-30.26,30.24-30.26Z"/></g><rect class="cls-4" x="73.09" y="108.34" width="35.21" height="16.6" rx="5.76" ry="5.76"/><rect class="cls-4" x="115.89" y="108.34" width="35.21" height="16.6" rx="5.76" ry="5.76"/><path class="cls-2" d="M145.34,101.28h-23.69c-4.28,0-7.76-3.48-7.76-7.76v-5.08c0-4.28,3.48-7.76,7.76-7.76h23.69c4.28,0,7.76,3.48,7.76,7.76v5.08c0,4.28-3.48,7.76-7.76,7.76Zm-23.69-16.6c-2.07,0-3.76,1.69-3.76,3.76v5.08c0,2.07,1.69,3.76,3.76,3.76h23.69c2.07,0,3.76-1.69,3.76-3.76v-5.08c0-2.07-1.69-3.76-3.76-3.76h-23.69Z"/><path class="cls-2" d="M145.34,126.94h-23.69c-4.28,0-7.76-3.48-7.76-7.76v-5.08c0-4.28,3.48-7.76,7.76-7.76h23.69c4.28,0,7.76,3.48,7.76,7.76v5.08c0,4.28-3.48,7.76-7.76,7.76Zm-23.69-16.6c-2.07,0-3.76,1.69-3.76,3.76v5.08c0,2.07,1.69,3.76,3.76,3.76h23.69c2.07,0,3.76-1.69,3.76-3.76v-5.08c0-2.07-1.69-3.76-3.76-3.76h-23.69Z"/><path class="cls-2" d="M145.34,152.6h-23.69c-4.28,0-7.76-3.48-7.76-7.76v-5.08c0-4.28,3.48-7.76,7.76-7.76h23.69c4.28,0,7.76,3.48,7.76,7.76v5.08c0,4.28-3.48,7.76-7.76,7.76Zm-23.69-16.6c-2.07,0-3.76,1.69-3.76,3.76v5.08c0,2.07,1.69,3.76,3.76,3.76h23.69c2.07,0,3.76-1.69,3.76-3.76v-5.08c0-2.07-1.69-3.76-3.76-3.76h-23.69Z"/><path class="cls-2" d="M145.34,178.27h-23.69c-4.28,0-7.76-3.48-7.76-7.76v-5.08c0-4.28,3.48-7.76,7.76-7.76h23.69c4.28,0,7.76,3.48,7.76,7.76v5.08c0,4.28-3.48,7.76-7.76,7.76Zm-23.69-16.6c-2.07,0-3.76,1.69-3.76,3.76v5.08c0,2.07,1.69,3.76,3.76,3.76h23.69c2.07,0,3.76-1.69,3.76-3.76v-5.08c0-2.07-1.69-3.76-3.76-3.76h-23.69Z"/><path class="cls-2" d="M102.54,152.6h-23.69c-4.28,0-7.76-3.48-7.76-7.76v-5.08c0-4.28,3.48-7.76,7.76-7.76h23.69c4.28,0,7.76,3.48,7.76,7.76v5.08c0,4.28-3.48,7.76-7.76,7.76Zm-23.69-16.6c-2.07,0-3.76,1.69-3.76,3.76v5.08c0,2.07,1.69,3.76,3.76,3.76h23.69c2.07,0,3.76-1.69,3.76-3.76v-5.08c0-2.07-1.69-3.76-3.76-3.76h-23.69Z"/><path class="cls-2" d="M102.54,178.27h-23.69c-4.28,0-7.76-3.48-7.76-7.76v-5.08c0-4.28,3.48-7.76,7.76-7.76h23.69c4.28,0,7.76,3.48,7.76,7.76v5.08c0,4.28-3.48,7.76-7.76,7.76Zm-23.69-16.6c-2.07,0-3.76,1.69-3.76,3.76v5.08c0,2.07,1.69,3.76,3.76,3.76h23.69c2.07,0,3.76-1.69,3.76-3.76v-5.08c0-2.07-1.69-3.76-3.76-3.76h-23.69Z"/><path class="cls-2" d="M188.11,152.6h-23.69c-4.28,0-7.76-3.48-7.76-7.76v-5.08c0-4.28,3.48-7.76,7.76-7.76h23.69c4.28,0,7.76,3.48,7.76,7.76v5.08c0,4.28-3.48,7.76-7.76,7.76Zm-23.69-16.6c-2.07,0-3.76,1.69-3.76,3.76v5.08c0,2.07,1.69,3.76,3.76,3.76h23.69c2.07,0,3.76-1.69,3.76-3.76v-5.08c0-2.07-1.69-3.76-3.76-3.76h-23.69Z"/><path class="cls-2" d="M188.11,178.27h-23.69c-4.28,0-7.76-3.48-7.76-7.76v-5.08c0-4.28,3.48-7.76,7.76-7.76h23.69c4.28,0,7.76,3.48,7.76,7.76v5.08c0,4.28-3.48,7.76-7.76,7.76Zm-23.69-16.6c-2.07,0-3.76,1.69-3.76,3.76v5.08c0,2.07,1.69,3.76,3.76,3.76h23.69c2.07,0,3.76-1.69,3.76-3.76v-5.08c0-2.07-1.69-3.76-3.76-3.76h-23.69Z"/><path class="cls-2" d="M102.54,126.94h-23.69c-4.28,0-7.76-3.48-7.76-7.76v-5.08c0-4.28,3.48-7.76,7.76-7.76h23.69c4.28,0,7.76,3.48,7.76,7.76v5.08c0,4.28-3.48,7.76-7.76,7.76Zm-23.69-16.6c-2.07,0-3.76,1.69-3.76,3.76v5.08c0,2.07,1.69,3.76,3.76,3.76h23.69c2.07,0,3.76-1.69,3.76-3.76v-5.08c0-2.07-1.69-3.76-3.76-3.76h-23.69Z"/><path class="cls-2" d="M188.11,126.94h-23.69c-4.28,0-7.76-3.48-7.76-7.76v-5.08c0-4.28,3.48-7.76,7.76-7.76h23.69c4.28,0,7.76,3.48,7.76,7.76v5.08c0,4.28-3.48,7.76-7.76,7.76Zm-23.69-16.6c-2.07,0-3.76,1.69-3.76,3.76v5.08c0,2.07,1.69,3.76,3.76,3.76h23.69c2.07,0,3.76-1.69,3.76-3.76v-5.08c0-2.07-1.69-3.76-3.76-3.76h-23.69Z"/><g><path d="M133.51,26.34c58.34,0,105.65,47.31,105.65,105.65s-47.31,105.67-105.65,105.67S27.84,190.37,27.84,131.99,75.14,26.34,133.51,26.34Zm90.53,105.65c0-49.92-40.61-90.53-90.53-90.53S42.96,82.07,42.96,131.99s40.61,90.55,90.55,90.55,90.53-40.62,90.53-90.55Z"/><g><path class="cls-1" d="M133.51,41.47c-49.94,0-90.55,40.61-90.55,90.53s40.61,90.55,90.55,90.55,90.53-40.62,90.53-90.55-40.61-90.53-90.53-90.53Z"/><path class="cls-1" d="M133.51,237.66c-58.37,0-105.67-47.29-105.67-105.67S75.14,26.34,133.51,26.34s105.65,47.31,105.65,105.65-47.31,105.67-105.65,105.67Z"/></g></g></g></g></svg>