<?xml version="1.0" encoding="UTF-8"?><svg id="Layer_2" xmlns="http://www.w3.org/2000/svg" viewBox="0 0 159.2 159.2"><defs><style>.cls-1{stroke-width:2px;}.cls-1,.cls-2,.cls-3,.cls-4{fill:none;stroke:#fff;stroke-miterlimit:10;}.cls-3{stroke-width:7px;}.cls-4{stroke-width:.5px;}</style></defs><g id="Layer_1-2"><g><circle class="cls-4" cx="79.6" cy="79.6" r="72.25"/><path class="cls-2" d="M139.32,79.59c0,32.99-26.74,59.73-59.72,59.73s-59.73-26.74-59.73-59.73S46.61,19.87,79.6,19.87s59.72,26.74,59.72,59.72Z"/><circle class="cls-4" cx="79.6" cy="78.6" r="56.13"/><path class="cls-4" d="M139.32,79.59c0,32.99-26.74,59.73-59.72,59.73s-59.73-26.74-59.73-59.73S46.61,19.87,79.6,19.87s59.72,26.74,59.72,59.72Z"/><path class="cls-3" d="M79.61,138.32c-32.99,0-59.73-26.74-59.73-59.73S46.62,18.87,79.61,18.87s59.72,26.74,59.72,59.72-26.74,59.73-59.72,59.73Z"/><rect class="cls-1" x="37.41" y="62.45" width="23.17" height="11.12" rx="3.11" ry="3.11"/><rect class="cls-1" x="37.41" y="80.84" width="23.17" height="11.12" rx="3.11" ry="3.11"/><rect class="cls-1" x="37.41" y="99.02" width="23.17" height="11.12" rx="3.11" ry="3.11"/><rect class="cls-1" x="68.01" y="62.45" width="23.17" height="11.12" rx="3.11" ry="3.11"/><rect class="cls-1" x="68.01" y="44.05" width="23.17" height="11.12" rx="3.11" ry="3.11"/><rect class="cls-1" x="68.01" y="80.84" width="23.17" height="11.12" rx="3.11" ry="3.11"/><rect class="cls-1" x="68.01" y="99.02" width="23.17" height="11.12" rx="3.11" ry="3.11"/><rect class="cls-1" x="98.62" y="62.45" width="23.17" height="11.12" rx="3.11" ry="3.11"/><rect class="cls-1" x="98.62" y="80.84" width="23.17" height="11.12" rx="3.11" ry="3.11"/><rect class="cls-1" x="98.62" y="99.02" width="23.17" height="11.12" rx="3.11" ry="3.11"/><circle class="cls-2" cx="79.6" cy="79.6" r="79.1"/></g></g></svg>