<?xml version="1.0" encoding="UTF-8"?><svg id="Layer_2" xmlns="http://www.w3.org/2000/svg" viewBox="0 0 517.01 517.01"><defs><style>.cls-1{stroke-width:3px;}.cls-1,.cls-2,.cls-3,.cls-4,.cls-5{stroke-miterlimit:10;}.cls-1,.cls-3{stroke:#ed2590;}.cls-1,.cls-4,.cls-5{fill:none;}.cls-2{fill:#ed2590;}.cls-2,.cls-3,.cls-4{stroke-width:4px;}.cls-2,.cls-4,.cls-5{stroke:#000;}.cls-5{stroke-width:11px;}</style></defs><g id="Layer_1-2"><g><circle class="cls-2" cx="258.5" cy="258.5" r="256.5"/><circle class="cls-2" cx="258.01" cy="258.01" r="234.36"/><circle class="cls-5" cx="258.01" cy="255.07" r="173.58"/><g><path d="M258.09,70.66c101.92,0,184.56,82.64,184.56,184.56s-82.64,184.59-184.56,184.59S73.5,357.18,73.5,255.22,156.13,70.66,258.09,70.66Zm59,184.59c0-32.54-26.45-59.03-59-59.03s-59.03,26.48-59.03,59.03,26.48,59,59.03,59,59-26.45,59-59Z"/><path d="M258.09,196.23c32.54,0,59,26.48,59,59.03s-26.45,59-59,59-59.03-26.45-59.03-59,26.48-59.03,59.03-59.03Z"/></g><rect class="cls-4" x="140.68" y="209.44" width="68.68" height="32.38" rx="5.76" ry="5.76"/><rect class="cls-4" x="224.17" y="209.44" width="68.68" height="32.38" rx="5.76" ry="5.76"/><path class="cls-3" d="M281.61,195.66h-46.21c-8.35,0-15.14-6.79-15.14-15.14v-9.9c0-8.35,6.79-15.14,15.14-15.14h46.21c8.35,0,15.14,6.79,15.14,15.14v9.9c0,8.35-6.79,15.14-15.14,15.14Zm-46.21-32.38c-4.04,0-7.33,3.29-7.33,7.33v9.9c0,4.04,3.29,7.33,7.33,7.33h46.21c4.04,0,7.33-3.29,7.33-7.33v-9.9c0-4.04-3.29-7.33-7.33-7.33h-46.21Z"/><path class="cls-3" d="M281.61,245.72h-46.21c-8.35,0-15.14-6.79-15.14-15.14v-9.9c0-8.35,6.79-15.14,15.14-15.14h46.21c8.35,0,15.14,6.79,15.14,15.14v9.9c0,8.35-6.79,15.14-15.14,15.14Zm-46.21-32.38c-4.04,0-7.33,3.29-7.33,7.33v9.9c0,4.04,3.29,7.33,7.33,7.33h46.21c4.04,0,7.33-3.29,7.33-7.33v-9.9c0-4.04-3.29-7.33-7.33-7.33h-46.21Z"/><path class="cls-3" d="M281.61,295.77h-46.21c-8.35,0-15.14-6.79-15.14-15.14v-9.9c0-8.35,6.79-15.14,15.14-15.14h46.21c8.35,0,15.14,6.79,15.14,15.14v9.9c0,8.35-6.79,15.14-15.14,15.14Zm-46.21-32.38c-4.04,0-7.33,3.29-7.33,7.33v9.9c0,4.04,3.29,7.33,7.33,7.33h46.21c4.04,0,7.33-3.29,7.33-7.33v-9.9c0-4.04-3.29-7.33-7.33-7.33h-46.21Z"/><path class="cls-3" d="M281.61,345.83h-46.21c-8.35,0-15.14-6.79-15.14-15.14v-9.9c0-8.35,6.79-15.14,15.14-15.14h46.21c8.35,0,15.14,6.79,15.14,15.14v9.9c0,8.35-6.79,15.14-15.14,15.14Zm-46.21-32.38c-4.04,0-7.33,3.29-7.33,7.33v9.9c0,4.04,3.29,7.33,7.33,7.33h46.21c4.04,0,7.33-3.29,7.33-7.33v-9.9c0-4.04-3.29-7.33-7.33-7.33h-46.21Z"/><path class="cls-3" d="M198.12,295.77h-46.21c-8.35,0-15.14-6.79-15.14-15.14v-9.9c0-8.35,6.79-15.14,15.14-15.14h46.21c8.35,0,15.14,6.79,15.14,15.14v9.9c0,8.35-6.79,15.14-15.14,15.14Zm-46.21-32.38c-4.04,0-7.33,3.29-7.33,7.33v9.9c0,4.04,3.29,7.33,7.33,7.33h46.21c4.04,0,7.33-3.29,7.33-7.33v-9.9c0-4.04-3.29-7.33-7.33-7.33h-46.21Z"/><path class="cls-3" d="M198.12,345.83h-46.21c-8.35,0-15.14-6.79-15.14-15.14v-9.9c0-8.35,6.79-15.14,15.14-15.14h46.21c8.35,0,15.14,6.79,15.14,15.14v9.9c0,8.35-6.79,15.14-15.14,15.14Zm-46.21-32.38c-4.04,0-7.33,3.29-7.33,7.33v9.9c0,4.04,3.29,7.33,7.33,7.33h46.21c4.04,0,7.33-3.29,7.33-7.33v-9.9c0-4.04-3.29-7.33-7.33-7.33h-46.21Z"/><path class="cls-3" d="M365.03,295.77h-46.21c-8.35,0-15.14-6.79-15.14-15.14v-9.9c0-8.35,6.79-15.14,15.14-15.14h46.21c8.35,0,15.14,6.79,15.14,15.14v9.9c0,8.35-6.79,15.14-15.14,15.14Zm-46.21-32.38c-4.04,0-7.33,3.29-7.33,7.33v9.9c0,4.04,3.29,7.33,7.33,7.33h46.21c4.04,0,7.33-3.29,7.33-7.33v-9.9c0-4.04-3.29-7.33-7.33-7.33h-46.21Z"/><path class="cls-3" d="M365.03,345.83h-46.21c-8.35,0-15.14-6.79-15.14-15.14v-9.9c0-8.35,6.79-15.14,15.14-15.14h46.21c8.35,0,15.14,6.79,15.14,15.14v9.9c0,8.35-6.79,15.14-15.14,15.14Zm-46.21-32.38c-4.04,0-7.33,3.29-7.33,7.33v9.9c0,4.04,3.29,7.33,7.33,7.33h46.21c4.04,0,7.33-3.29,7.33-7.33v-9.9c0-4.04-3.29-7.33-7.33-7.33h-46.21Z"/><path class="cls-3" d="M198.12,245.72h-46.21c-8.35,0-15.14-6.79-15.14-15.14v-9.9c0-8.35,6.79-15.14,15.14-15.14h46.21c8.35,0,15.14,6.79,15.14,15.14v9.9c0,8.35-6.79,15.14-15.14,15.14Zm-46.21-32.38c-4.04,0-7.33,3.29-7.33,7.33v9.9c0,4.04,3.29,7.33,7.33,7.33h46.21c4.04,0,7.33-3.29,7.33-7.33v-9.9c0-4.04-3.29-7.33-7.33-7.33h-46.21Z"/><path class="cls-3" d="M365.03,245.72h-46.21c-8.35,0-15.14-6.79-15.14-15.14v-9.9c0-8.35,6.79-15.14,15.14-15.14h46.21c8.35,0,15.14,6.79,15.14,15.14v9.9c0,8.35-6.79,15.14-15.14,15.14Zm-46.21-32.38c-4.04,0-7.33,3.29-7.33,7.33v9.9c0,4.04,3.29,7.33,7.33,7.33h46.21c4.04,0,7.33-3.29,7.33-7.33v-9.9c0-4.04-3.29-7.33-7.33-7.33h-46.21Z"/><g><path d="M258.53,49.49c113.8,0,206.09,92.29,206.09,206.09s-92.29,206.12-206.09,206.12S52.41,369.44,52.41,255.57,144.66,49.49,258.53,49.49Zm176.59,206.09c0-97.38-79.21-176.59-176.59-176.59S81.9,158.19,81.9,255.57s79.21,176.62,176.62,176.62,176.59-79.24,176.59-176.62Z"/><g><path class="cls-1" d="M258.53,78.98c-97.41,0-176.62,79.21-176.62,176.59s79.21,176.62,176.62,176.62,176.59-79.24,176.59-176.62-79.21-176.59-176.59-176.59Z"/><path class="cls-1" d="M258.53,461.69c-113.86,0-206.12-92.25-206.12-206.12S144.66,49.49,258.53,49.49s206.09,92.29,206.09,206.09-92.29,206.12-206.09,206.12Z"/></g></g></g></g></svg>