<?xml version="1.0" encoding="UTF-8"?><svg id="Layer_2" xmlns="http://www.w3.org/2000/svg" viewBox="0 0 104.76 106.98"><defs><style>.cls-1{fill:#fff;}.cls-2{fill:none;stroke:#fff;stroke-miterlimit:10;}</style></defs><g id="Layer_1-2"><g><g><path class="cls-2" d="M52.12,56.97s26.62,.8,24.22-33.65c-.52-7.48-4.52-22.45-24.22-22.82h1.26c-19.7,.38-23.7,15.34-24.22,22.82-2.4,34.45,24.22,33.65,24.22,33.65h-1.26Z"/><path class="cls-1" d="M52.75,44.48h-.05c-1.43-.14-5.03-.77-7.52-3.54-2.89-3.21-4.13-9-3.59-16.75,.51-7.35,3.95-10.81,11.13-11.2,7.24,.39,10.67,3.85,11.19,11.2,.54,7.75-.7,13.54-3.59,16.75-2.5,2.77-6.09,3.4-7.52,3.54h-.05Zm-.03-30.49c-6.7,.37-9.65,3.34-10.13,10.27-.52,7.47,.63,13.01,3.33,16.01,2.23,2.48,5.48,3.07,6.83,3.21,1.34-.14,4.59-.72,6.83-3.21,2.7-3,3.85-8.54,3.33-16.01-.48-6.93-3.44-9.9-10.19-10.27Z"/><path class="cls-1" d="M52.75,44.48h-.05c-1.43-.14-5.03-.77-7.52-3.54-2.89-3.21-4.13-9-3.59-16.75,.51-7.35,3.95-10.81,11.13-11.2,7.24,.39,10.67,3.85,11.19,11.2,.54,7.75-.7,13.54-3.59,16.75-2.5,2.77-6.09,3.4-7.52,3.54h-.05Zm-.03-30.49c-6.7,.37-9.65,3.34-10.13,10.27-.52,7.47,.63,13.01,3.33,16.01,2.23,2.48,5.48,3.07,6.83,3.21,1.34-.14,4.59-.72,6.83-3.21,2.7-3,3.85-8.54,3.33-16.01-.48-6.93-3.44-9.9-10.19-10.27Z"/><g><g><path class="cls-1" d="M69.88,23.77c.66,9.54-1.06,16.66-5.11,21.17-4.3,4.77-10.34,5.44-12.02,5.54-1.67-.1-7.72-.77-12.01-5.54-4.06-4.51-5.78-11.63-5.11-21.17,.51-7.35,3.9-16.2,17.12-16.77,13.22,.57,16.61,9.42,17.13,16.77Zm-9.56,17.17c2.89-3.21,4.13-9,3.59-16.75-.51-7.35-3.95-10.81-11.19-11.2-7.18,.39-10.61,3.85-11.13,11.2-.54,7.75,.71,13.54,3.59,16.75,2.5,2.77,6.09,3.4,7.52,3.54h.1c1.43-.14,5.03-.77,7.52-3.54Z"/><path class="cls-1" d="M63.91,24.19c.54,7.75-.7,13.54-3.59,16.75-2.49,2.77-6.09,3.4-7.52,3.54h-.1c-1.43-.14-5.02-.77-7.52-3.54-2.88-3.21-4.13-9-3.59-16.75,.52-7.35,3.95-10.81,11.13-11.2,7.24,.39,10.68,3.85,11.19,11.2Zm-4.33,16.08c2.7-3,3.85-8.54,3.33-16.01-.48-6.93-3.43-9.9-10.19-10.27-6.69,.37-9.65,3.34-10.13,10.27-.52,7.47,.63,13.01,3.34,16.01,2.23,2.48,5.48,3.07,6.82,3.21,1.35-.14,4.59-.73,6.83-3.21Z"/></g><path class="cls-2" d="M52.75,50.48c-1.67-.1-7.72-.77-12.01-5.54-4.06-4.51-5.78-11.63-5.11-21.17,.51-7.35,3.9-16.2,17.12-16.77,13.22,.57,16.61,9.42,17.13,16.77,.66,9.54-1.06,16.66-5.11,21.17-4.3,4.77-10.34,5.44-12.02,5.54Z"/></g><path class="cls-2" d="M104.21,98.76c1.37-27.34-26.43-39.48-31.57-41.48-.42-.16-.88,.02-1.08,.42-.9,1.82-4.46,8.69-19.18,8.69s-18.28-6.87-19.18-8.69c-.2-.4-.67-.58-1.08-.42C26.98,59.28-.82,71.42,.55,98.76c0,0,18.16,7.72,51.83,7.72,29.86,0,51.83-7.72,51.83-7.72Z"/><g><g><path class="cls-1" d="M90.46,89.06l.19,.53-.55,.13c-8.49,1.96-21.92,4.3-37.72,4.3-17.34,0-30.13-2.2-37.82-4.03l-.53-.13,.17-.52c2.78-8.09,9.76-13.61,15.13-16.82l.28-.17,.27,.2c5.66,4.18,13.23,6.29,22.5,6.29s16.85-2.11,22.51-6.29l.26-.2,.29,.17c5.28,3.16,12.18,8.6,15.02,16.54Zm-1.14-.19c-2.8-7.24-9.13-12.29-14.11-15.32-5.8,4.18-13.48,6.29-22.83,6.29s-17.02-2.11-22.82-6.29c-5.07,3.07-11.48,8.21-14.22,15.59,7.68,1.8,20.2,3.88,37.04,3.88,15.36,0,28.48-2.23,36.94-4.15Z"/><path class="cls-1" d="M74.28,65.09c7.64,3.77,21.82,12.86,23.36,28.89-7.65,2.12-24.55,6.02-45.26,6.02-22.93,0-38.41-3.74-45.28-5.83,1.45-16.16,15.72-25.3,23.39-29.08,3.79,4.15,10.4,7.77,21.89,7.77s18.11-3.62,21.9-7.77Zm16.37,24.5l-.19-.53c-2.84-7.94-9.74-13.38-15.02-16.54l-.29-.17-.26,.2c-5.66,4.18-13.23,6.29-22.51,6.29s-16.84-2.11-22.5-6.29l-.27-.2-.28,.17c-5.37,3.21-12.35,8.73-15.13,16.82l-.17,.52,.53,.13c7.69,1.83,20.48,4.03,37.82,4.03,15.8,0,29.23-2.34,37.72-4.3l.55-.13Z"/></g><path class="cls-2" d="M52.38,100c-22.93,0-38.41-3.74-45.28-5.83,1.45-16.16,15.72-25.3,23.39-29.08,3.79,4.15,10.4,7.77,21.89,7.77s18.11-3.62,21.9-7.77c7.64,3.77,21.82,12.86,23.36,28.89-7.65,2.12-24.55,6.02-45.26,6.02Z"/></g></g><g><polygon class="cls-2" points="82.83 51.32 82.83 61.85 87.91 61.85 87.91 51.32 97.64 51.32 97.64 46.99 87.91 47.04 87.91 35.44 82.83 35.44 82.7 46.99 72.97 46.99 72.97 51.32 82.83 51.32"/><line class="cls-2" x1="85.37" y1="37.84" x2="85.37" y2="59.93"/><line class="cls-2" x1="96.68" y1="49.34" x2="74.58" y2="49.34"/></g></g></g></svg>