<?xml version="1.0" encoding="UTF-8"?><svg id="Layer_2" xmlns="http://www.w3.org/2000/svg" viewBox="0 0 188.67 113.98"><defs><style>.cls-1{fill:#fff;}.cls-2{fill:none;stroke:#fff;stroke-miterlimit:10;}</style></defs><g id="Layer_1-2"><g><path class="cls-2" d="M94.33,63.98s26.62,.8,24.22-33.65c-.52-7.48-4.52-22.45-24.22-22.82h1.26c-19.7,.38-23.7,15.34-24.22,22.82-2.4,34.45,24.22,33.65,24.22,33.65h-1.26Z"/><path class="cls-1" d="M94.96,51.48h-.05c-1.43-.14-5.03-.77-7.52-3.54-2.89-3.21-4.13-9-3.59-16.75,.51-7.35,3.95-10.81,11.13-11.2,7.24,.39,10.67,3.85,11.19,11.2,.54,7.75-.7,13.54-3.59,16.75-2.5,2.77-6.09,3.4-7.52,3.54h-.05Zm-.03-30.49c-6.7,.37-9.65,3.34-10.13,10.27-.52,7.47,.63,13.01,3.33,16.01,2.23,2.48,5.48,3.07,6.83,3.21,1.34-.14,4.59-.72,6.83-3.21,2.7-3,3.85-8.54,3.33-16.01-.48-6.93-3.44-9.9-10.19-10.27Z"/><path class="cls-1" d="M94.96,51.48h-.05c-1.43-.14-5.03-.77-7.52-3.54-2.89-3.21-4.13-9-3.59-16.75,.51-7.35,3.95-10.81,11.13-11.2,7.24,.39,10.67,3.85,11.19,11.2,.54,7.75-.7,13.54-3.59,16.75-2.5,2.77-6.09,3.4-7.52,3.54h-.05Zm-.03-30.49c-6.7,.37-9.65,3.34-10.13,10.27-.52,7.47,.63,13.01,3.33,16.01,2.23,2.48,5.48,3.07,6.83,3.21,1.34-.14,4.59-.72,6.83-3.21,2.7-3,3.85-8.54,3.33-16.01-.48-6.93-3.44-9.9-10.19-10.27Z"/><g><g><path class="cls-1" d="M112.08,30.77c.66,9.54-1.06,16.67-5.11,21.17-4.3,4.77-10.34,5.44-12.02,5.54-1.67-.1-7.72-.77-12.01-5.54-4.06-4.5-5.77-11.63-5.11-21.17,.51-7.35,3.91-16.2,17.12-16.77,13.22,.57,16.62,9.42,17.13,16.77Zm-9.56,17.17c2.89-3.21,4.13-9,3.59-16.75-.51-7.35-3.94-10.81-11.18-11.2-7.19,.39-10.62,3.85-11.13,11.2-.54,7.75,.7,13.54,3.58,16.75,2.5,2.77,6.1,3.4,7.53,3.54h.09c1.43-.14,5.03-.77,7.52-3.54Z"/><path class="cls-1" d="M105.12,31.26c-.49-6.93-3.44-9.9-10.19-10.27-6.7,.37-9.65,3.34-10.14,10.27-.52,7.47,.64,13.01,3.34,16.01,2.23,2.48,5.48,3.07,6.82,3.21,1.35-.14,4.6-.73,6.83-3.21,2.7-3,3.85-8.54,3.34-16.01Zm-10.19-11.27c7.24,.39,10.67,3.85,11.18,11.2,.54,7.75-.7,13.54-3.59,16.75-2.49,2.77-6.09,3.4-7.52,3.54h-.09c-1.43-.14-5.03-.77-7.53-3.54-2.88-3.21-4.12-9-3.58-16.75,.51-7.35,3.94-10.81,11.13-11.2Z"/></g><path class="cls-2" d="M94.95,57.48c-1.67-.1-7.72-.77-12.01-5.54-4.06-4.5-5.77-11.63-5.11-21.17,.51-7.35,3.91-16.2,17.12-16.77,13.22,.57,16.62,9.42,17.13,16.77,.66,9.54-1.06,16.67-5.11,21.17-4.3,4.77-10.34,5.44-12.02,5.54Z"/></g><path class="cls-2" d="M44.27,47.5s22.63,.68,20.59-28.6c-.44-6.36-3.84-18.08-20.59-18.4h1.07c-16.74,.32-20.14,12.04-20.59,18.4-2.04,29.28,20.59,28.6,20.59,28.6h-1.07Z"/><path class="cls-1" d="M44.81,35h-.06c-.96-.13-3.38-.6-4.98-2.38-2.11-2.34-3-6.79-2.57-12.86,.28-4.05,1.62-6.46,7.59-6.78,6.03,.32,7.37,2.73,7.65,6.78,.42,6.07-.47,10.51-2.57,12.86-1.6,1.78-4.02,2.25-4.98,2.37h-.06Zm-.03-21.01c-5.24,.29-6.34,2.19-6.6,5.85-.4,5.79,.4,9.98,2.32,12.12,1.34,1.49,3.41,1.92,4.3,2.04,.89-.12,2.96-.55,4.3-2.04,1.92-2.13,2.72-6.32,2.32-12.12-.26-3.66-1.35-5.57-6.65-5.85Z"/><path class="cls-1" d="M44.81,35h-.06c-.96-.13-3.38-.6-4.98-2.38-2.11-2.34-3-6.79-2.57-12.86,.28-4.05,1.62-6.46,7.59-6.78,6.03,.32,7.37,2.73,7.65,6.78,.42,6.07-.47,10.51-2.57,12.86-1.6,1.78-4.02,2.25-4.98,2.37h-.06Zm-.03-21.01c-5.24,.29-6.34,2.19-6.6,5.85-.4,5.79,.4,9.98,2.32,12.12,1.34,1.49,3.41,1.92,4.3,2.04,.89-.12,2.96-.55,4.3-2.04,1.92-2.13,2.72-6.32,2.32-12.12-.26-3.66-1.35-5.57-6.65-5.85Z"/><path class="cls-2" d="M146.42,105.76c1.37-27.34-26.43-39.48-31.57-41.48-.42-.16-.88,.02-1.08,.42-.9,1.82-4.46,8.69-19.18,8.69s-18.28-6.87-19.18-8.69c-.2-.4-.67-.58-1.08-.42-5.14,2.01-32.93,14.14-31.57,41.48,0,0,18.16,7.72,51.83,7.72,29.86,0,51.83-7.72,51.83-7.72Z"/><path class="cls-2" d="M73.91,59.55s-27.95,6.21-34.45,31.3c0,0-34.16-3.06-38.96-7.3,0,0,0-28.52,27.95-33.88,0,0,1.98,6.21,17.22,5.93,0,0,11.86-1.42,13.62-4.92,.29-.57,.84-.95,1.47-.87,2.32,.29,7.12,1.04,8.06,2.4l5.08,7.34Z"/><g><g><path class="cls-1" d="M58.39,19.35c.55,7.83-.83,13.64-4.09,17.27-3.37,3.74-8.1,4.3-9.5,4.38-1.39-.08-6.12-.64-9.49-4.38-3.26-3.63-4.64-9.44-4.09-17.27,.54-7.84,5.12-12,13.58-12.36,8.47,.36,13.04,4.52,13.59,12.36Zm-8.54,13.27c2.11-2.34,3-6.79,2.58-12.86-.29-4.05-1.62-6.45-7.65-6.78-5.98,.33-7.31,2.73-7.6,6.78-.42,6.07,.47,10.52,2.58,12.86,1.6,1.78,4.02,2.25,4.98,2.37h.13c.96-.12,3.38-.59,4.98-2.37Z"/><path class="cls-1" d="M52.43,19.76c.42,6.07-.47,10.52-2.58,12.86-1.6,1.78-4.02,2.25-4.98,2.37h-.13c-.96-.12-3.38-.59-4.98-2.37-2.11-2.34-3-6.79-2.58-12.86,.29-4.05,1.62-6.45,7.6-6.78,6.03,.33,7.36,2.73,7.65,6.78Zm-3.32,12.19c1.92-2.13,2.72-6.33,2.32-12.12-.26-3.65-1.36-5.56-6.65-5.85-5.24,.29-6.34,2.2-6.6,5.85-.4,5.79,.4,9.99,2.32,12.12,1.35,1.49,3.41,1.92,4.3,2.04,.9-.12,2.96-.55,4.31-2.04Z"/></g><path class="cls-2" d="M44.8,41c-1.39-.08-6.12-.64-9.49-4.38-3.26-3.63-4.64-9.44-4.09-17.27,.54-7.84,5.12-12,13.58-12.36,8.47,.36,13.04,4.52,13.59,12.36,.55,7.83-.83,13.64-4.09,17.27-3.37,3.74-8.1,4.3-9.5,4.38Z"/></g><g><g><path class="cls-1" d="M132.66,96.06l.19,.53-.55,.13c-8.48,1.96-21.92,4.3-37.72,4.3-17.33,0-30.13-2.2-37.82-4.03l-.53-.13,.18-.52c2.78-8.09,9.75-13.61,15.12-16.82l.28-.17,.27,.2c5.66,4.18,13.23,6.29,22.5,6.29s16.85-2.11,22.51-6.29l.27-.2,.28,.17c5.28,3.16,12.18,8.6,15.02,16.54Zm-1.14-.19c-2.8-7.24-9.13-12.29-14.11-15.32-5.8,4.18-13.48,6.29-22.83,6.29s-17.02-2.11-22.82-6.29c-5.06,3.07-11.47,8.21-14.22,15.59,7.68,1.8,20.21,3.88,37.04,3.88,15.37,0,28.48-2.23,36.94-4.15Z"/><path class="cls-1" d="M116.48,72.09c7.64,3.77,21.82,12.86,23.36,28.89-7.65,2.12-24.55,6.02-45.26,6.02-22.93,0-38.41-3.74-45.27-5.83,1.45-16.15,15.71-25.3,23.38-29.08,3.8,4.15,10.4,7.77,21.89,7.77s18.11-3.62,21.9-7.77Zm16.37,24.5l-.19-.53c-2.84-7.94-9.74-13.38-15.02-16.54l-.28-.17-.27,.2c-5.66,4.18-13.23,6.29-22.51,6.29s-16.84-2.11-22.5-6.29l-.27-.2-.28,.17c-5.37,3.21-12.34,8.73-15.12,16.82l-.18,.52,.53,.13c7.69,1.83,20.49,4.03,37.82,4.03,15.8,0,29.24-2.34,37.72-4.3l.55-.13Z"/></g><path class="cls-2" d="M94.58,107c-22.93,0-38.41-3.74-45.27-5.83,1.45-16.15,15.71-25.3,23.38-29.08,3.8,4.15,10.4,7.77,21.89,7.77s18.11-3.62,21.9-7.77c7.64,3.77,21.82,12.86,23.36,28.89-7.65,2.12-24.55,6.02-45.26,6.02Z"/></g><g><g><path class="cls-1" d="M46.44,62.03c3.23-.39,6.66-1.02,9.73-2.05-7.88,4.65-16.61,12.16-21.25,23.91-10.72-1.14-22.03-2.85-27.53-4.36,1.07-6.34,4.93-18.31,18.72-22.61,3.15,2.61,8.74,5.16,18.56,5.16,.37,0,.74,0,1.12-.01h.33l.32-.04Zm-9.22,6.3l.55-.68-.87-.13c-4.38-.66-8.22-1.93-11.4-3.77l-.23-.13-.23,.11c-4.61,2.16-7.99,5.77-10.04,10.73l-.24,.57,.61,.11c4.32,.79,9.84,1.6,15.55,2.28l.34,.04,.16-.31c1.6-3.09,3.55-6.06,5.8-8.82Z"/><path class="cls-1" d="M37.77,67.65l-.55,.68c-2.25,2.76-4.2,5.73-5.8,8.82l-.16,.31-.34-.04c-5.71-.68-11.23-1.49-15.55-2.28l-.61-.11,.24-.57c2.05-4.96,5.43-8.57,10.04-10.73l.23-.11,.23,.13c3.18,1.84,7.02,3.11,11.4,3.77l.87,.13Zm-7.08,8.74c1.47-2.8,3.22-5.49,5.21-8.02-4.05-.69-7.64-1.91-10.67-3.62-4.08,1.97-7.13,5.17-9.06,9.52,4.11,.73,9.23,1.48,14.52,2.12Z"/></g><path class="cls-2" d="M34.92,83.89c-10.72-1.14-22.03-2.85-27.53-4.36,1.07-6.34,4.93-18.31,18.72-22.61,3.15,2.61,8.74,5.16,18.56,5.16,.37,0,.74,0,1.12-.01h.33l.32-.04c3.23-.39,6.66-1.02,9.73-2.05-7.88,4.65-16.61,12.16-21.25,23.91Z"/></g><path class="cls-2" d="M144.4,47.5s-22.63,.68-20.59-28.6c.44-6.36,3.84-18.08,20.59-18.4h-1.07c16.74,.32,20.14,12.04,20.59,18.4,2.04,29.28-20.59,28.6-20.59,28.6h1.07Z"/><path class="cls-1" d="M143.8,35c-.96-.12-3.38-.6-4.98-2.37-2.11-2.34-3-6.79-2.57-12.86,.28-4.05,1.62-6.46,7.65-6.78,5.98,.32,7.31,2.73,7.59,6.78,.42,6.07-.47,10.52-2.57,12.86-1.6,1.78-4.02,2.25-4.98,2.37h-.12Zm-6.56-15.16c-.4,5.79,.4,9.98,2.32,12.12,1.34,1.49,3.41,1.92,4.3,2.04,.89-.12,2.96-.55,4.3-2.04,1.92-2.13,2.72-6.32,2.32-12.12-.25-3.66-1.35-5.56-6.6-5.85-5.3,.29-6.39,2.2-6.65,5.85Z"/><path class="cls-1" d="M143.8,35c-.96-.12-3.38-.6-4.98-2.37-2.11-2.34-3-6.79-2.57-12.86,.28-4.05,1.62-6.46,7.65-6.78,5.98,.32,7.31,2.73,7.59,6.78,.42,6.07-.47,10.52-2.57,12.86-1.6,1.78-4.02,2.25-4.98,2.37h-.12Zm-6.56-15.16c-.4,5.79,.4,9.98,2.32,12.12,1.34,1.49,3.41,1.92,4.3,2.04,.89-.12,2.96-.55,4.3-2.04,1.92-2.13,2.72-6.32,2.32-12.12-.25-3.66-1.35-5.56-6.6-5.85-5.3,.29-6.39,2.2-6.65,5.85Z"/><path class="cls-2" d="M114.76,59.55s27.95,6.21,34.45,31.3c0,0,34.16-3.06,38.96-7.3,0,0,0-28.52-27.95-33.88,0,0-1.98,6.21-17.22,5.93,0,0-11.86-1.42-13.62-4.92-.29-.57-.84-.95-1.47-.87-2.32,.29-7.12,1.04-8.06,2.4l-5.08,7.34Z"/><g><g><path class="cls-1" d="M148.91,32.62c2.11-2.34,3-6.79,2.58-12.86-.29-4.05-1.62-6.45-7.6-6.78-6.03,.33-7.36,2.73-7.65,6.78-.42,6.07,.47,10.52,2.58,12.86,1.6,1.78,4.02,2.25,4.98,2.37h.13c.96-.12,3.38-.59,4.98-2.37Zm-.74-.67c-1.35,1.49-3.41,1.92-4.3,2.04-.9-.12-2.96-.55-4.31-2.04-1.92-2.13-2.72-6.33-2.32-12.12,.26-3.65,1.36-5.56,6.65-5.85,5.24,.29,6.34,2.2,6.6,5.85,.4,5.79-.4,9.99-2.32,12.12Z"/><path class="cls-1" d="M151.49,19.76c.42,6.07-.47,10.52-2.58,12.86-1.6,1.78-4.02,2.25-4.98,2.37h-.13c-.96-.12-3.38-.59-4.98-2.37-2.11-2.34-3-6.79-2.58-12.86,.29-4.05,1.62-6.45,7.65-6.78,5.98,.33,7.31,2.73,7.6,6.78Zm-21.21-.41c-.55,7.83,.83,13.64,4.09,17.27,3.37,3.74,8.1,4.3,9.5,4.38,1.39-.08,6.12-.64,9.49-4.38,3.26-3.63,4.64-9.44,4.09-17.27-.54-7.84-5.12-12-13.58-12.36-8.47,.36-13.04,4.52-13.59,12.36Z"/></g><path class="cls-2" d="M143.87,41c1.39-.08,6.12-.64,9.49-4.38,3.26-3.63,4.64-9.44,4.09-17.27-.54-7.84-5.12-12-13.58-12.36-8.47,.36-13.04,4.52-13.59,12.36-.55,7.83,.83,13.64,4.09,17.27,3.37,3.74,8.1,4.3,9.5,4.38Z"/></g><g><g><path class="cls-1" d="M163.44,64.75c4.08,1.97,7.13,5.17,9.06,9.52-4.11,.73-9.23,1.48-14.52,2.12-1.47-2.8-3.22-5.49-5.21-8.02,4.05-.69,7.64-1.91,10.67-3.62Zm10.23,9.71c-2.05-4.96-5.43-8.57-10.04-10.73l-.23-.11-.23,.13c-3.18,1.84-7.02,3.11-11.4,3.77l-.87,.13,.55,.68c2.25,2.76,4.2,5.73,5.8,8.82l.16,.31,.34-.04c5.71-.68,11.23-1.49,15.55-2.28l.61-.11-.24-.57Z"/><path class="cls-1" d="M181.28,79.53c-1.07-6.34-4.93-18.31-18.72-22.61-3.15,2.61-8.74,5.16-18.56,5.16-.37,0-.74,0-1.12-.01h-.33l-.32-.04c-3.23-.39-6.66-1.02-9.73-2.05,7.88,4.65,16.61,12.16,21.25,23.91,10.72-1.14,22.03-2.85,27.53-4.36Zm-17.65-15.8c4.61,2.16,7.99,5.77,10.04,10.73l.24,.57-.61,.11c-4.32,.79-9.84,1.6-15.55,2.28l-.34,.04-.16-.31c-1.6-3.09-3.55-6.06-5.8-8.82l-.55-.68,.87-.13c4.38-.66,8.22-1.93,11.4-3.77l.23-.13,.23,.11Z"/></g><path class="cls-2" d="M132.5,59.98c3.07,1.03,6.5,1.66,9.73,2.05l.32,.04h.33c.38,.01,.75,.01,1.12,.01,9.82,0,15.41-2.55,18.56-5.16,13.79,4.3,17.65,16.27,18.72,22.61-5.5,1.51-16.81,3.22-27.53,4.36-4.64-11.75-13.37-19.26-21.25-23.91Z"/></g></g></g></svg>