<?xml version="1.0" encoding="UTF-8"?><svg id="Layer_2" xmlns="http://www.w3.org/2000/svg" viewBox="0 0 134.58 134.58"><defs><style>.cls-1{fill:#fff;}.cls-2{fill:none;stroke:#fff;stroke-miterlimit:10;}</style></defs><g id="Layer_1-2"><g><circle class="cls-2" cx="67.29" cy="67.29" r="66.79"/><path class="cls-1" d="M67.29,3.65c35.09,0,63.64,28.55,63.64,63.64s-28.55,63.64-63.64,63.64S3.65,102.38,3.65,67.29,32.2,3.65,67.29,3.65Zm59.71,63.64c0-32.92-26.79-59.71-59.71-59.71S7.58,34.37,7.58,67.29s26.79,59.71,59.71,59.71,59.71-26.79,59.71-59.71Z"/><path class="cls-2" d="M43.02,97.29c.98,.48,2.11,.72,3.35,.72,1.7,0,3.28-.44,4.33-.83,.11-.29,.24-.56,.38-.83-6.63-1.62-10.57-3.13-13.81-5.31,1.4,1.48,2.04,2.75,2.26,3.24,.34,.65,1.96,2.04,3.49,3Z"/><path class="cls-2" d="M88.83,118.56c20.23-8.43,34.2-28.07,34.23-51.28,.03-30.8-24.97-55.77-55.77-55.77S11.51,36.48,11.51,67.29c0,24.82,15.63,46.7,38.25,53.16l-.25-9.12c-.88,.06-1.73,.1-2.55,.1-4.65,0-8.41-1.01-11.17-3.01-3.04-2.2-3.85-4.86-4.06-5.91-.23-1.14-1.9-3.75-3.4-5.63-.39-.38-1.89-1.48-2.83-2.07-1.82-1.14-2.47-3.01-2.47-4.27v-1.02l.6-.83c.7-.96,2.12-2.11,4.89-2.11,1.27,0,2.35,.24,2.56,.28l.35,.08,.32,.16c.69,.34,1.33,.69,1.91,1.05-8.13-7.43-9.21-13.38-10.09-18.2l-.12-.66c-2.2-11.92,4.69-19.43,8.4-22.52-2.34-7.62,1.26-16.06,1.43-16.46l.8-1.84,2-.05c.14,0,.27,0,.41,0,6.61,0,14.06,4.35,17.19,6.38,3.99-1.4,9.07-1.6,13.22-1.6h.39c7.79,.01,12.34,.94,14.57,1.59,9.05-5.35,14.16-6.17,16.45-6.17,.77,0,1.27,.09,1.56,.16l1.4,.35,.64,1.29c.84,1.68,1.28,7.22,1.32,16.48,9.13,10.33,8.52,17.66,8.14,22.1v.09c-1.24,14.63-9.97,21.72-17.08,25.09-3.08,1.46-6.1,2.35-8.61,2.89,2.46,1.83,3.14,21.53,3.14,21.53Z"/><path class="cls-2" d="M85.53,119.85s-1.33-13.21-1.48-19.19c-.05-1.9-2.14-4.77-4.77-5.92,0,0,26.82-.49,28.96-25.93,.35-4.18,.99-10.84-8.14-20.71,0,0,0-14.31-.99-16.29,0,0-4.52-1.15-16.86,6.42,0,0-3.98-1.87-14.95-1.89-3.53,0-10.02,.04-13.97,2.02,0,0-9.58-6.99-17.15-6.79,0,0-4.07,9.38-.49,16.29,0,0-11.68,7.07-9.13,20.87,.94,5.09,1.59,10.52,10.24,18,4.22,3.65,8.77,5.36,20.85,7.9,0,0-4.32,2.1-4.2,4.81,0,0-6.42,3.46-11.97,.62,0,0-3.83-2.34-4.81-4.44,0,0-1.23-3.21-6.29-5.68,0,0-3.21-.74-4.2,.62,0,0,0,.99,.99,1.6s3.08,2.1,3.58,2.71,3.58,4.57,4.07,7.03,4.07,8.02,17.77,5.92l.28,13.39c4.47,1.09,9.71,1.92,14.43,1.87,6.25-.07,12.62-1.27,18.24-3.22Z"/></g></g></svg>