<?xml version="1.0" encoding="UTF-8"?><svg id="Layer_2" xmlns="http://www.w3.org/2000/svg" viewBox="0 0 148.09 142.91"><defs><style>.cls-1{fill:#fff;}.cls-2{fill:none;stroke:#fff;stroke-miterlimit:10;}</style></defs><g id="Layer_1-2"><g><polygon class="cls-2" points="103.59 29.43 119.82 29.43 119.82 45.89 103.59 29.43"/><g><polygon class="cls-1" points="130.96 18.95 130.96 57.38 123.89 50.32 123.89 24.92 98.85 24.92 119.18 45.61 92.48 18.95 130.96 18.95"/><g><polygon class="cls-2" points="119.18 45.61 98.85 24.92 123.89 24.92 123.89 50.32 123.89 50.41 119.18 45.61"/><polygon class="cls-2" points="119.18 45.61 92.48 18.95 130.96 18.95 130.96 57.38 123.89 50.32 119.18 45.61"/></g></g><polygon class="cls-2" points="83.54 10.06 139.51 10.06 139.51 66.26 83.54 10.06"/><polygon class="cls-2" points=".97 73.61 74.04 .71 147.11 73.61 147.59 75.05 147.59 142.41 74.55 142.41 74.55 113.75 73.54 113.75 73.54 142.41 .5 142.41 .5 75.05 .97 73.61"/><g><path class="cls-1" d="M137.94,75.05v61.31h-57.34v-28.65h-13.11v28.65H10.15v-61.31l.5-1.34L74.04,10.46l63.4,63.25,.5,1.34Zm-7.78,53.54v-51.16L74.04,21.45,17.93,77.43v51.16H59.72v-28.66h28.65v28.66h41.79Z"/><g><polygon class="cls-2" points="10.65 73.71 74.04 10.46 137.44 73.71 137.94 75.05 137.94 136.36 80.6 136.36 80.6 107.71 67.49 107.71 67.49 136.36 10.15 136.36 10.15 75.05 10.65 73.71"/><polygon class="cls-2" points="88.37 128.59 88.37 99.93 59.72 99.93 59.72 128.59 17.93 128.59 17.93 77.43 74.04 21.45 130.16 77.43 130.16 128.59 88.37 128.59"/></g></g><polygon class="cls-2" points="94.85 122.1 94.85 93.45 53.23 93.45 53.23 122.1 24.41 122.1 24.41 80.12 74.04 30.6 123.68 80.12 123.68 122.1 94.85 122.1"/></g></g></svg>