<?xml version="1.0" encoding="UTF-8"?><svg id="Layer_2" xmlns="http://www.w3.org/2000/svg" viewBox="0 0 134.58 134.58"><defs><style>.cls-1{fill:#fff;}.cls-2{fill:none;stroke:#fff;stroke-miterlimit:10;}</style></defs><g id="Layer_1-2"><g><g><ellipse class="cls-2" cx="67.85" cy="67.29" rx="56.32" ry="55.77" transform="translate(-2.31 132.16) rotate(-87.52)"/><rect class="cls-2" x="27.35" y="26.79" width="81" height="81" rx="21.6" ry="21.6"/><rect class="cls-2" x="34.96" y="34.39" width="65.79" height="65.79" rx="14.4" ry="14.4"/><circle class="cls-2" cx="67.85" cy="67.29" r="21.14"/><circle class="cls-2" cx="67.85" cy="67.29" r="13.64"/><circle class="cls-2" cx="88.99" cy="46.15" r="5.05"/></g><g><circle class="cls-2" cx="67.29" cy="67.29" r="66.79"/><path class="cls-1" d="M67.29,3.65c35.09,0,63.64,28.55,63.64,63.64s-28.55,63.64-63.64,63.64S3.65,102.38,3.65,67.29,32.2,3.65,67.29,3.65Zm59.71,63.64c0-32.92-26.79-59.71-59.71-59.71S7.58,34.37,7.58,67.29s26.79,59.71,59.71,59.71,59.71-26.79,59.71-59.71Z"/></g></g></g></svg>