<?xml version="1.0" encoding="UTF-8"?><svg id="Layer_2" xmlns="http://www.w3.org/2000/svg" viewBox="0 0 134.61 134.61"><defs><style>.cls-1{fill:#fff;}.cls-2{fill:none;stroke:#fff;stroke-miterlimit:10;}</style></defs><g id="Layer_1-2"><g><circle class="cls-2" cx="67.31" cy="67.31" r="66.81"/><path class="cls-2" d="M127.03,67.3c0,32.99-26.74,59.73-59.72,59.73S7.58,100.29,7.58,67.3,34.32,7.58,67.31,7.58s59.72,26.74,59.72,59.72Z"/><circle class="cls-2" cx="67.31" cy="67.31" r="56.13"/><circle class="cls-2" cx="45.55" cy="42.01" r="11.08"/><path class="cls-2" d="M53.75,42c0,4.53-3.67,8.2-8.2,8.2s-8.2-3.67-8.2-8.2,3.67-8.19,8.2-8.19,8.2,3.67,8.2,8.19Z"/><rect class="cls-2" x="36.07" y="54.03" width="18.96" height="47.32"/><rect class="cls-2" x="38.95" y="56.92" width="13.2" height="41.56"/><path class="cls-2" d="M85.21,101.36v-28.03c-.13-1.03-.82-4.01-4.46-4.01-1.09,0-2.36,.24-3.78,.71v31.32h-20.22V54.03h17.51v.72c2.34-1.56,5.63-2.72,10.22-2.72,11.05,0,18.21,5.88,19.13,15.74,1.08,11.52,.05,30.07,0,30.86l-.15,2.72h-18.25Z"/><path class="cls-2" d="M59.63,98.48h14.46v-29.72c0-.42,.27-.82,.66-.97,12.47-4.94,13.34,5.4,13.34,5.4v25.3h12.65s1.07-18.99,0-30.43c-.9-9.63-8.13-13.13-16.26-13.13s-11.28,4.15-12.45,6.74c-.15,.34-.65,.22-.65-.15v-4.59h-11.75v41.56Z"/><path class="cls-1" d="M67.31,3.65c35.1,0,63.65,28.55,63.65,63.65s-28.55,63.66-63.65,63.66S3.65,102.4,3.65,67.3,32.2,3.65,67.31,3.65Zm59.72,63.65c0-32.98-26.74-59.72-59.72-59.72S7.58,34.32,7.58,67.3s26.74,59.73,59.73,59.73,59.72-26.74,59.72-59.73Z"/><path class="cls-2" d="M127.03,67.3c0,32.99-26.74,59.73-59.72,59.73S7.58,100.29,7.58,67.3,34.32,7.58,67.31,7.58s59.72,26.74,59.72,59.72Z"/></g></g></svg>