<?xml version="1.0" encoding="UTF-8"?><svg id="Layer_2" xmlns="http://www.w3.org/2000/svg" viewBox="0 0 118.5 117.13"><defs><style>.cls-1{fill:#fff;}.cls-2{fill:none;stroke:#fff;stroke-miterlimit:10;}</style></defs><g id="Layer_1-2"><g><path class="cls-2" d="M82.99,47.71V5.54c0-2.78-2.26-5.04-5.04-5.04H5.54C2.76,.5,.5,2.76,.5,5.54V111.59c0,2.78,2.26,5.04,5.04,5.04H77.95c2.78,0,5.04-2.26,5.04-5.04v-43.1c0-.08-.06-.14-.14-.14h-11.96c-.08,0-.14,.06-.14,.14v35.29c0,.08-.06,.14-.14,.14H11.59c-.08,0-.14-.06-.14-.14V12.59c0-.08,.06-.14,.14-.14h59.01c.08,0,.14,.06,.14,.14V47.71c0,.08,.06,.14,.14,.14h11.96c.08,0,.14-.06,.14-.14Z"/><path class="cls-2" d="M36.34,58.03v3.39c0,1.19,.97,2.16,2.16,2.16h59.82l-4.83,5.11c-.85,.9-.77,2.34,.18,3.14l3.95,3.33c.83,.7,2.05,.67,2.85-.06l16.83-15.48c.93-.86,.93-2.32,0-3.18l-16.83-15.48c-.8-.74-2.02-.76-2.85-.06l-3.95,3.33c-.95,.8-1.03,2.23-.18,3.14l4.83,5.11H38.5c-1.19,0-2.16,.97-2.16,2.16v3.39Z"/><g><path class="cls-1" d="M5.54,113.03c-.79,0-1.44-.65-1.44-1.44V5.54c0-.79,.65-1.44,1.44-1.44H77.95c.79,0,1.44,.65,1.44,1.44V44.26h-5.05V12.58c0-2.06-1.68-3.74-3.74-3.74H11.59c-2.06,0-3.74,1.68-3.74,3.74V103.78c0,2.06,1.68,3.74,3.74,3.74h59.01c2.06,0,3.74-1.68,3.74-3.74v-31.83h5.05v39.64c0,.79-.65,1.44-1.44,1.44H5.54Z"/><polygon class="cls-1" points="97.15 70.06 106.67 59.98 39.94 59.98 39.94 56.08 106.67 56.08 97.15 46 98.97 44.47 113.71 58.03 98.97 71.59 97.15 70.06"/></g></g></g></svg>