<?xml version="1.0" encoding="UTF-8"?><svg id="Layer_2" xmlns="http://www.w3.org/2000/svg" viewBox="0 0 104.76 106.98"><defs><style>.cls-1{fill:#fff;}.cls-2{fill:none;stroke:#fff;stroke-miterlimit:10;}</style></defs><g id="Layer_1-2"><g><path class="cls-2" d="M52.12,56.97s26.62,.8,24.22-33.65c-.52-7.48-4.52-22.45-24.22-22.82h1.26c-19.7,.38-23.7,15.34-24.22,22.82-2.4,34.45,24.22,33.65,24.22,33.65h-1.26Z"/><path class="cls-1" d="M52.75,44.48h-.05c-1.43-.14-5.03-.77-7.52-3.54-2.89-3.21-4.13-9-3.59-16.75,.51-7.35,3.95-10.81,11.13-11.2,7.24,.39,10.67,3.85,11.19,11.2,.54,7.75-.7,13.54-3.59,16.75-2.5,2.77-6.09,3.4-7.52,3.54h-.05Zm-.03-30.49c-6.7,.37-9.65,3.34-10.13,10.27-.52,7.47,.63,13.01,3.33,16.01,2.23,2.48,5.48,3.07,6.83,3.21,1.34-.14,4.59-.72,6.83-3.21,2.7-3,3.85-8.54,3.33-16.01-.48-6.93-3.44-9.9-10.19-10.27Z"/><path class="cls-1" d="M52.75,44.48h-.05c-1.43-.14-5.03-.77-7.52-3.54-2.89-3.21-4.13-9-3.59-16.75,.51-7.35,3.95-10.81,11.13-11.2,7.24,.39,10.67,3.85,11.19,11.2,.54,7.75-.7,13.54-3.59,16.75-2.5,2.77-6.09,3.4-7.52,3.54h-.05Zm-.03-30.49c-6.7,.37-9.65,3.34-10.13,10.27-.52,7.47,.63,13.01,3.33,16.01,2.23,2.48,5.48,3.07,6.83,3.21,1.34-.14,4.59-.72,6.83-3.21,2.7-3,3.85-8.54,3.33-16.01-.48-6.93-3.44-9.9-10.19-10.27Z"/><g><g><path class="cls-1" d="M69.87,23.77c.67,9.54-1.05,16.66-5.11,21.17-4.29,4.77-10.34,5.44-12.01,5.53-1.68-.09-7.72-.76-12.02-5.53-4.05-4.51-5.77-11.63-5.11-21.17,.52-7.35,3.91-16.2,17.13-16.77,13.22,.57,16.61,9.42,17.12,16.77Zm-9.55,17.16c2.88-3.2,4.13-8.99,3.59-16.74-.52-7.36-3.95-10.81-11.19-11.2-7.18,.39-10.62,3.84-11.13,11.2-.54,7.75,.7,13.54,3.59,16.75,2.49,2.77,6.09,3.39,7.52,3.53h.1c1.43-.14,5.02-.76,7.52-3.54Z"/><path class="cls-1" d="M59.57,40.27c2.71-3,3.86-8.54,3.34-16.01-.48-6.93-3.44-9.91-10.19-10.27-6.7,.36-9.65,3.34-10.13,10.27-.52,7.47,.63,13.01,3.33,16.01,2.23,2.48,5.48,3.07,6.83,3.2,1.34-.13,4.59-.72,6.82-3.2Zm-17.98-16.08c.51-7.36,3.95-10.81,11.13-11.2,7.24,.39,10.67,3.84,11.19,11.2,.54,7.75-.71,13.54-3.59,16.74-2.5,2.78-6.09,3.4-7.52,3.54h-.1c-1.43-.14-5.03-.76-7.52-3.53-2.89-3.21-4.13-9-3.59-16.75Z"/></g><path class="cls-2" d="M52.75,50.47c-1.68-.09-7.72-.76-12.02-5.53-4.05-4.51-5.77-11.63-5.11-21.17,.52-7.35,3.91-16.2,17.13-16.77,13.22,.57,16.61,9.42,17.12,16.77,.67,9.54-1.05,16.66-5.11,21.17-4.29,4.77-10.34,5.44-12.01,5.53Z"/></g><path class="cls-2" d="M104.21,98.76c1.37-27.34-26.43-39.48-31.57-41.48-.42-.16-.88,.02-1.08,.42-.9,1.82-4.46,8.69-19.18,8.69s-18.28-6.87-19.18-8.69c-.2-.4-.67-.58-1.08-.42C26.98,59.28-.82,71.42,.55,98.76c0,0,18.16,7.72,51.83,7.72,29.86,0,51.83-7.72,51.83-7.72Z"/><g><g><path class="cls-1" d="M74.27,65.08c7.65,3.78,21.82,12.87,23.37,28.89-7.66,2.12-24.56,6.02-45.26,6.02-22.93,0-38.41-3.73-45.28-5.83,1.45-16.15,15.71-25.29,23.38-29.08,3.8,4.16,10.41,7.78,21.9,7.78s18.1-3.63,21.89-7.78Zm16.38,24.51l-.19-.53c-2.85-7.94-9.74-13.38-15.03-16.54l-.28-.17-.27,.2c-5.66,4.17-13.23,6.29-22.5,6.29s-16.85-2.12-22.51-6.3l-.26-.19-.29,.17c-5.36,3.2-12.34,8.73-15.12,16.82l-.18,.52,.54,.12c7.68,1.84,20.48,4.03,37.82,4.03,15.79,0,29.23-2.33,37.72-4.3l.55-.12Z"/><path class="cls-1" d="M90.1,89.71c-8.49,1.97-21.93,4.3-37.72,4.3-17.34,0-30.14-2.19-37.82-4.03l-.54-.12,.18-.52c2.78-8.09,9.76-13.62,15.12-16.82l.29-.17,.26,.19c5.66,4.18,13.23,6.3,22.51,6.3s16.84-2.12,22.5-6.29l.27-.2,.28,.17c5.29,3.16,12.18,8.6,15.03,16.54l.19,.53-.55,.12Zm-37.72,3.3c15.36,0,28.47-2.22,36.94-4.14-2.81-7.24-9.13-12.3-14.12-15.32-5.8,4.17-13.47,6.29-22.82,6.29s-17.03-2.12-22.83-6.29c-5.06,3.07-11.47,8.21-14.22,15.59,7.69,1.8,20.21,3.87,37.05,3.87Z"/></g><path class="cls-2" d="M52.38,99.99c-22.93,0-38.41-3.73-45.28-5.83,1.45-16.15,15.71-25.29,23.38-29.08,3.8,4.16,10.41,7.78,21.9,7.78s18.1-3.63,21.89-7.78c7.65,3.78,21.82,12.87,23.37,28.89-7.66,2.12-24.56,6.02-45.26,6.02Z"/></g></g></g></svg>